# xmcd CD database file
#
# Track frame offsets:
#	150
#	46159
#	72325
#	84195
#	95642
#	115676
#	128216
#	160378
#
# Disc length: 2448 seconds
#
# Revision: 0
# Processed by: cddbd v1.5.2PL0 Copyright (c) Steve Scherf et al.
# Submitted via: CDex 1.70beta2
#
DISCID=61098e08
DTITLE=Adderley, Julian Cannonball - Spontaneous Combustion
DYEAR=1955
DGENRE=Jazz
TTITLE0=Spontaneous Combustion
TTITLE1=With Apologies To Oscar
TTITLE2=Falling In Love With Love
TTITLE3=I Cover The Waterfront
TTITLE4=Chasm
TTITLE5=A Foggy Day
TTITLE6=Carribean Cutie
TTITLE7=A Little Taste
EXTD=YEAR: 1955
EXTT0=
EXTT1=
EXTT2=
EXTT3=
EXTT4=
EXTT5=
EXTT6=
EXTT7=
PLAYORDER=
